<svg xmlns="http://www.w3.org/2000/svg" width="25" height="25" viewBox="0 0 20 20">
    <g fill="none" fill-rule="evenodd">
        <g fill-rule="nonzero">
            <g>
                <g>
                    <g>
                        <g>
                            <path fill="#C8C8C8" d="M10 0C4.477 0 0 4.477 0 10s4.477 10 10 10 10-4.477 10-10S15.523 0 10 0z" transform="translate(-527 -191) translate(242 125) translate(23 16) translate(252) translate(10 50)"/>
                            <path fill="#FFF" d="M10 .87c5.043 0 9.13 4.087 9.13 9.13 0 5.043-4.087 9.13-9.13 9.13C4.957 19.13.87 15.043.87 10 .87 4.957 4.957.87 10 .87z" transform="translate(-527 -191) translate(242 125) translate(23 16) translate(252) translate(10 50)"/>
                        </g>
                    </g>
                </g>
            </g>
        </g>
    </g>
</svg>
