<?xml version="1.0" encoding="UTF-8"?>
<svg width="25px" height="25px" viewBox="0 0 20 20" version="1.1" xmlns="http://www.w3.org/2000/svg" xmlns:xlink="http://www.w3.org/1999/xlink">
    <title>Buttons/Radio/radio-lock</title>
    <g id="Buttons/Radio/radio-lock" stroke="none" stroke-width="1" fill="none" fill-rule="evenodd">
        <g id="Group" fill-rule="nonzero">
            <path d="M10,0 C4.4771525,0 0,4.4771525 0,10 C0,15.5228475 4.4771525,20 10,20 C15.5228475,20 20,15.5228475 20,10 C20,4.4771525 15.5228475,0 10,0 Z" id="Path" fill="#36BDBD"></path>
            <path d="M14,9 L13,9 L13,7 C13,5.34314575 11.6568542,4 10,4 C8.34314575,4 7,5.34314575 7,7 L7,9 L6,9 C5.44771525,9 5,9.44771525 5,10 L5,15 C5,15.5522847 5.44771525,16 6,16 L14,16 C14.5522847,16 15,15.5522847 15,15 L15,10 C15,9.44771525 14.5522847,9 14,9 Z M11,9 L9,9 L9,7 C9,6.44771525 9.44771525,6 10,6 C10.5522847,6 11,6.44771525 11,7 L11,9 Z" id="Tick/Lock" fill="#FFFFFF"></path>
        </g>
    </g>
</svg>